<svg xmlns="http://www.w3.org/2000/svg" viewBox="0 0 2888 1010"><g transform="translate(0,760)"><path d="M134.0 189Q97.0 189 77.5 169.5Q58.0 150 58.0 112V-423Q58.0 -460 77.5 -479.5Q97.0 -499 132.0 -499Q169.0 -499 188.0 -479.5Q207.0 -460 207.0 -423V-355L196.0 -394Q211.0 -442 256.5 -471.5Q302.0 -501 361.0 -501Q425.0 -501 473.5 -470.0Q522.0 -439 549.0 -382.0Q576.0 -325 576.0 -246Q576.0 -167 549.0 -109.0Q522.0 -51 474.0 -20.0Q426.0 11 361.0 11Q303.0 11 258.0 -17.5Q213.0 -46 197.0 -92H209.0V112Q209.0 150 189.5 169.5Q170.0 189 134.0 189ZM316.0 -102Q348.0 -102 372.5 -118.0Q397.0 -134 410.5 -165.5Q424.0 -197 424.0 -246Q424.0 -319 394.0 -353.5Q364.0 -388 316.0 -388Q284.0 -388 259.5 -373.0Q235.0 -358 221.0 -326.5Q207.0 -295 207.0 -246Q207.0 -173 237.0 -137.5Q267.0 -102 316.0 -102Z M814.0 11Q760.0 11 717.0 -10.0Q674.0 -31 650.0 -67.0Q626.0 -103 626.0 -148Q626.0 -202 654.0 -233.5Q682.0 -265 745.0 -278.5Q808.0 -292 912.0 -292H965.0V-214H913.0Q862.0 -214 830.5 -208.5Q799.0 -203 785.5 -190.0Q772.0 -177 772.0 -154Q772.0 -126 791.5 -108.0Q811.0 -90 848.0 -90Q877.0 -90 899.5 -103.5Q922.0 -117 935.0 -140.5Q948.0 -164 948.0 -194V-309Q948.0 -353 928.0 -371.5Q908.0 -390 860.0 -390Q833.0 -390 801.5 -383.5Q770.0 -377 732.0 -362Q710.0 -352 693.0 -357.5Q676.0 -363 667.0 -377.5Q658.0 -392 658.0 -409.5Q658.0 -427 668.0 -443.5Q678.0 -460 701.0 -468Q748.0 -487 789.5 -494.0Q831.0 -501 866.0 -501Q943.0 -501 992.5 -478.5Q1042.0 -456 1067.0 -409.5Q1092.0 -363 1092.0 -290V-68Q1092.0 -31 1074.0 -11.0Q1056.0 9 1022.0 9Q988.0 9 969.5 -11.0Q951.0 -31 951.0 -68V-105L958.0 -99Q952.0 -65 932.5 -40.5Q913.0 -16 883.0 -2.5Q853.0 11 814.0 11Z M1362.0 11Q1273.0 11 1229.0 -38.5Q1185.0 -88 1185.0 -186V-637Q1185.0 -675 1204.5 -694.5Q1224.0 -714 1261.0 -714Q1297.0 -714 1316.5 -694.5Q1336.0 -675 1336.0 -637V-192Q1336.0 -151 1353.5 -131.5Q1371.0 -112 1400.0 -112Q1408.0 -112 1415.0 -113.0Q1422.0 -114 1430.0 -114Q1446.0 -116 1452.5 -104.5Q1459.0 -93 1459.0 -59Q1459.0 -29 1447.0 -13.5Q1435.0 2 1410.0 7Q1400.0 8 1387.0 9.5Q1374.0 11 1362.0 11Z M1576.0 9Q1539.0 9 1519.5 -11.0Q1500.0 -31 1500.0 -68V-423Q1500.0 -460 1519.5 -479.5Q1539.0 -499 1574.0 -499Q1610.0 -499 1629.0 -479.5Q1648.0 -460 1648.0 -423V-359L1637.0 -399Q1657.0 -445 1699.0 -473.0Q1741.0 -501 1798.0 -501Q1855.0 -501 1893.0 -474.0Q1931.0 -447 1947.0 -391H1933.0Q1955.0 -442 2000.5 -471.5Q2046.0 -501 2105.0 -501Q2162.0 -501 2198.5 -478.5Q2235.0 -456 2253.0 -410.5Q2271.0 -365 2271.0 -295V-68Q2271.0 -31 2251.5 -11.0Q2232.0 9 2196.0 9Q2159.0 9 2139.5 -11.0Q2120.0 -31 2120.0 -68V-290Q2120.0 -339 2104.5 -361.5Q2089.0 -384 2052.0 -384Q2009.0 -384 1985.0 -354.0Q1961.0 -324 1961.0 -269V-68Q1961.0 -31 1941.5 -11.0Q1922.0 9 1886.0 9Q1850.0 9 1830.0 -11.0Q1810.0 -31 1810.0 -68V-290Q1810.0 -339 1794.5 -361.5Q1779.0 -384 1742.0 -384Q1699.0 -384 1675.0 -354.0Q1651.0 -324 1651.0 -269V-68Q1651.0 9 1576.0 9Z" fill="#173D27"/><defs><clipPath id="clippalmo-logo"><circle cx="2638.50" cy="-249.50" r="249.50"/></clipPath></defs><g clip-path="url(#clippalmo-logo)"><rect x="2389.00" y="-499.00" width="230.01" height="230.01" fill="#12994B"/><rect x="2657.99" y="-499.00" width="230.01" height="230.01" fill="#12994B"/><rect x="2389.00" y="-230.01" width="230.01" height="230.01" fill="#12994B"/><rect x="2657.99" y="-230.01" width="230.01" height="230.01" fill="#F5BE2E"/></g></g></svg>