<svg xmlns="http://www.w3.org/2000/svg" viewBox="0 0 2983 1040"><g transform="translate(0,780)"><path d="M134 189Q97 189 77.5 169.5Q58 150 58 112V-423Q58 -460 77.5 -479.5Q97 -499 132 -499Q169 -499 188.0 -479.5Q207 -460 207 -423V-355L196 -394Q211 -442 256.5 -471.5Q302 -501 361 -501Q425 -501 473.5 -470.0Q522 -439 549.0 -382.0Q576 -325 576 -246Q576 -167 549.0 -109.0Q522 -51 474.0 -20.0Q426 11 361 11Q303 11 258.0 -17.5Q213 -46 197 -92H209V112Q209 150 189.5 169.5Q170 189 134 189ZM316 -102Q348 -102 372.5 -118.0Q397 -134 410.5 -165.5Q424 -197 424 -246Q424 -319 394.0 -353.5Q364 -388 316 -388Q284 -388 259.5 -373.0Q235 -358 221.0 -326.5Q207 -295 207 -246Q207 -173 237.0 -137.5Q267 -102 316 -102Z M834 11Q780 11 737.0 -10.0Q694 -31 670.0 -67.0Q646 -103 646 -148Q646 -202 674.0 -233.5Q702 -265 765.0 -278.5Q828 -292 932 -292H985V-214H933Q882 -214 850.5 -208.5Q819 -203 805.5 -190.0Q792 -177 792 -154Q792 -126 811.5 -108.0Q831 -90 868 -90Q897 -90 919.5 -103.5Q942 -117 955.0 -140.5Q968 -164 968 -194V-309Q968 -353 948.0 -371.5Q928 -390 880 -390Q853 -390 821.5 -383.5Q790 -377 752 -362Q730 -352 713.0 -357.5Q696 -363 687.0 -377.5Q678 -392 678.0 -409.5Q678 -427 688.0 -443.5Q698 -460 721 -468Q768 -487 809.5 -494.0Q851 -501 886 -501Q963 -501 1012.5 -478.5Q1062 -456 1087.0 -409.5Q1112 -363 1112 -290V-68Q1112 -31 1094.0 -11.0Q1076 9 1042 9Q1008 9 989.5 -11.0Q971 -31 971 -68V-105L978 -99Q972 -65 952.5 -40.5Q933 -16 903.0 -2.5Q873 11 834 11Z M1402 11Q1313 11 1269.0 -38.5Q1225 -88 1225 -186V-637Q1225 -675 1244.5 -694.5Q1264 -714 1301 -714Q1337 -714 1356.5 -694.5Q1376 -675 1376 -637V-192Q1376 -151 1393.5 -131.5Q1411 -112 1440 -112Q1448 -112 1455.0 -113.0Q1462 -114 1470 -114Q1486 -116 1492.5 -104.5Q1499 -93 1499 -59Q1499 -29 1487.0 -13.5Q1475 2 1450 7Q1440 8 1427.0 9.5Q1414 11 1402 11Z M1636 9Q1599 9 1579.5 -11.0Q1560 -31 1560 -68V-423Q1560 -460 1579.5 -479.5Q1599 -499 1634 -499Q1670 -499 1689.0 -479.5Q1708 -460 1708 -423V-359L1697 -399Q1717 -445 1759.0 -473.0Q1801 -501 1858 -501Q1915 -501 1953.0 -474.0Q1991 -447 2007 -391H1993Q2015 -442 2060.5 -471.5Q2106 -501 2165 -501Q2222 -501 2258.5 -478.5Q2295 -456 2313.0 -410.5Q2331 -365 2331 -295V-68Q2331 -31 2311.5 -11.0Q2292 9 2256 9Q2219 9 2199.5 -11.0Q2180 -31 2180 -68V-290Q2180 -339 2164.5 -361.5Q2149 -384 2112 -384Q2069 -384 2045.0 -354.0Q2021 -324 2021 -269V-68Q2021 -31 2001.5 -11.0Q1982 9 1946 9Q1910 9 1890.0 -11.0Q1870 -31 1870 -68V-290Q1870 -339 1854.5 -361.5Q1839 -384 1802 -384Q1759 -384 1735.0 -354.0Q1711 -324 1711 -269V-68Q1711 9 1636 9Z" fill="#173D27"/><rect x="2454.0" y="-528.94" width="528.94" height="528.94" rx="158.68200000000002" fill="#12994B"/><rect x="2569.83786" y="-413.1021400000001" width="136.46652000000003" height="136.46652000000003" rx="30.02263440000001" fill="#FFFFFF"/><rect x="2731.16456" y="-413.1021400000001" width="136.46652000000003" height="136.46652000000003" rx="30.02263440000001" fill="#FFFFFF"/><rect x="2569.83786" y="-251.77544" width="136.46652000000003" height="136.46652000000003" rx="30.02263440000001" fill="#FFFFFF"/><rect x="2731.16456" y="-251.77544" width="136.46652000000003" height="136.46652000000003" rx="30.02263440000001" fill="#F5BE2E"/></g></svg>